# xmcd CD database file
#
# Track frame offsets:
#	150
#	23809
#	52434
#	72836
#	108687
#	129772
#	152290
#	186751
#	214712
#	254035
#	290526
#
# Disc length: 4040 seconds
#
# Revision: 0
# Processed by: cddbd v1.5.2PL0 Copyright (c) Steve Scherf et al.
# Submitted via: CDex 1.70beta3
#
DISCID=a30fc60b
DTITLE=Gene Dinovi - Live in Yokohama
DYEAR=2003
DGENRE=Jazz
TTITLE0=Come Fly with Me
TTITLE1=Charade
TTITLE2=L'oiseau du Paradis
TTITLE3=Golden Earrings
TTITLE4=Wonder Why
TTITLE5=One for Johfu
TTITLE6=Tea for Two
TTITLE7=In The Middle of a Kiss
TTITLE8=The Song is You
TTITLE9=So in Love
TTITLE10=Red Dragon Fly
EXTD=YEAR: 2003
EXTT0=
EXTT1=
EXTT2=
EXTT3=
EXTT4=
EXTT5=
EXTT6=
EXTT7=
EXTT8=
EXTT9=
EXTT10=
PLAYORDER=
